PathFileType	4	(X/Y/Z)	SUBJ94_1_walk_RCNL2025.trc
DataRate	CameraRate	NumFrames	NumMarkers	Units	OrigDataRate	OrigDataStartFrame	OrigNumFrames
100	100	14	25	mm	100	239	382
Frame#	Time	R_Shoulder			L_Shoulder			C7			J_Notch			R_Elbow			L_Elbow			R_Wrist			L_Wrist			R_Asis			L_Asis			Sacral			Thoracic			Sternum			R_Thigh_Lateral			R_Knee_Lateral			R_Shank_Lateral			R_Ankle_Lateral			R_Heel			R_Toe			L_Thigh_Lateral			L_Knee_Lateral			L_Shank_Lateral			L_Ankle_Lateral			L_Heel			L_Toe		
		X1	Y1	Z1	X2	Y2	Z2	X3	Y3	Z3	X4	Y4	Z4	X5	Y5	Z5	X6	Y6	Z6	X7	Y7	Z7	X8	Y8	Z8	X9	Y9	Z9	X10	Y10	Z10	X11	Y11	Z11	X12	Y12	Z12	X13	Y13	Z13	X14	Y14	Z14	X15	Y15	Z15	X16	Y16	Z16	X17	Y17	Z17	X18	Y18	Z18	X19	Y19	Z19	X20	Y20	Z20	X21	Y21	Z21	X22	Y22	Z22	X23	Y23	Z23	X24	Y24	Z24	X25	Y25	Z25
239	2.38000000	53.021336	1274.785034	365.041901	49.006779	1268.798340	-13.851629	-11.128792	1351.273315	173.033051	106.881783	1260.027954	172.554413	8.005099	1005.328247	473.863373	-14.941957	988.247803	-74.022644	116.547424	806.205109	484.795410	139.035564	813.911041	-84.602943	91.770760	880.764343	318.703705	112.330406	877.803406	93.648170	-86.319473	933.926880	182.190674	-77.424530	1149.921387	175.309708	137.258652	1066.506104	196.260208	109.320992	538.336548	389.313110	132.989166	451.093903	336.522247	24.745628	314.751984	368.070953	-107.134216	161.934357	282.790009	-137.619553	185.228836	229.893387	-14.487026	65.957611	265.788147	58.812504	534.119446	9.493466	47.557156	435.624207	69.097054	35.066528	251.238907	15.628822	3.945470	53.888416	125.580193	-38.281254	45.796337	173.102005	126.690842	41.330502	156.734009
240	2.39000000	63.329849	1275.209595	364.984406	60.853119	1269.124512	-13.841534	0.182991	1351.546265	172.522736	117.925728	1260.134644	172.660416	14.907636	1006.146606	473.591675	-0.834257	988.329407	-74.988770	119.783112	805.171356	486.352463	155.178795	815.789490	-84.062309	103.121346	881.660339	317.931946	122.563545	877.557007	92.993675	-75.572495	934.484558	182.680130	-66.570190	1150.235107	174.783463	147.828186	1066.700684	196.612564	126.957703	540.860962	388.586761	151.732346	453.853943	335.393890	49.666306	312.036957	368.060974	-76.165001	153.398148	283.922241	-108.224548	174.848984	231.153397	22.033278	63.199734	266.803253	63.720768	533.916870	9.942345	50.838783	435.476074	69.561455	37.347229	251.233154	16.330408	4.052405	54.153111	126.024895	-38.087589	46.033066	173.513092	126.777679	41.252384	156.774857
241	2.40000000	73.599113	1275.459106	364.960907	72.585327	1269.260742	-13.839357	11.481714	1351.626831	172.027954	128.922745	1260.157349	172.734024	21.775444	1006.845947	473.378265	13.195931	988.247314	-75.936790	123.108639	804.176453	487.960449	171.209824	817.525665	-83.524132	114.538864	882.249268	317.072845	132.790207	877.064636	92.298737	-64.834213	934.784851	183.284851	-55.708881	1150.357300	174.313278	158.454437	1066.807617	196.850357	144.239655	543.183716	387.912506	169.770752	456.372894	334.237335	74.515869	308.986847	367.997162	-44.500927	144.477020	284.993866	-77.958221	163.946869	232.316406	58.961926	60.376076	267.782990	68.601608	533.602295	10.393478	54.310902	435.291809	70.050392	39.768761	251.229355	17.046913	4.138551	54.425812	126.509827	-37.878883	46.312595	174.003387	126.879372	41.182560	156.829361
242	2.41000000	83.832504	1275.511841	364.979462	84.220512	1269.196655	-13.842184	22.765892	1351.520508	171.567886	139.887436	1260.075195	172.781540	28.632996	1007.406677	473.226807	27.161354	987.997375	-76.870049	126.557098	803.199890	489.613907	187.120590	819.099030	-82.979118	125.998802	882.521973	316.199402	143.020508	876.326050	91.605522	-54.100891	934.831543	183.982071	-44.835358	1150.286865	173.912766	169.148590	1066.798340	196.980606	161.126663	545.257324	387.304443	187.093643	458.598969	333.091492	99.201561	305.702484	367.890350	-12.141838	135.332748	285.994629	-46.819172	152.697159	233.351074	96.257851	57.622417	268.759125	73.505920	533.184387	10.839039	57.989719	435.070496	70.542770	42.167107	251.222916	17.718557	4.218252	54.706085	127.017189	-37.686348	46.644630	174.568680	127.002388	41.117031	156.898102
243	2.42000000	94.040375	1275.350586	365.043884	95.779381	1268.928589	-13.843885	34.038837	1351.234619	171.160965	150.838806	1259.865234	172.810989	35.503361	1007.815491	473.136566	41.073456	987.580811	-77.788689	130.154720	802.222534	491.306808	202.906219	820.493835	-82.418068	137.482727	882.484558	315.381592	153.261322	875.361938	90.955078	-43.367687	934.640442	184.748764	-33.946003	1150.026978	173.595169	179.916519	1066.643799	197.016693	177.571014	547.027710	386.765411	203.683182	460.475739	331.990295	123.598991	302.277252	367.759338	20.915424	126.119797	286.917542	-14.816177	141.282547	234.241852	133.883377	55.068981	269.742340	78.500061	532.678406	11.271155	61.892406	434.810059	71.021164	44.444042	251.205505	18.306982	4.310144	54.996063	127.527283	-37.525772	47.035828	175.191208	127.153221	41.049465	156.983246
244	2.43000000	104.239822	1274.964478	365.153290	107.283546	1268.458374	-13.834312	45.306980	1350.776733	170.821808	161.796356	1259.503784	172.831482	42.408371	1008.067322	473.104767	54.941654	987.003601	-78.690178	133.921417	801.228058	493.032578	218.562447	821.697693	-81.834183	148.982330	882.155823	314.679016	163.518692	874.209717	90.381157	-32.626629	934.232788	185.564346	-23.038885	1149.584229	173.372040	190.759293	1066.316406	196.976730	193.516953	548.435364	386.287170	219.512161	461.943268	330.962463	147.577515	298.783630	367.631592	54.669197	116.991737	287.757324	18.032415	129.894882	234.993088	171.792755	52.840866	270.725342	83.660500	532.100708	11.679504	66.036652	434.506042	71.474068	46.578686	251.166733	18.801010	4.428469	55.298466	128.023529	-37.388569	47.489979	175.840897	127.335129	40.975285	157.083344
245	2.44000000	114.452805	1274.350952	365.303680	118.751724	1267.791382	-13.798733	56.576660	1350.154175	170.561066	172.776199	1258.967285	172.853928	49.369072	1008.164246	473.129639	68.772583	986.275208	-79.570160	137.873440	800.204773	494.784729	234.085297	822.702209	-81.222630	160.500610	881.562256	314.136108	173.801392	872.913818	89.905113	-21.865215	933.630310	186.412918	-12.114038	1148.969360	173.252640	201.674698	1065.792236	196.881760	208.899292	549.418213	385.852814	234.547897	462.943115	330.031464	171.029510	295.265015	367.539001	89.092293	108.109039	288.512756	51.688686	118.733658	235.621536	209.921722	51.061119	271.690369	89.062843	531.465332	12.053452	70.437141	434.154572	71.895599	48.621796	251.099304	19.213434	4.579428	55.616798	128.495255	-37.252995	48.010895	176.485245	127.543617	40.894386	157.190948
246	2.45000000	124.702805	1273.516357	365.491943	130.199173	1266.936401	-13.719572	67.853279	1349.374756	170.386185	183.790497	1258.235107	172.890396	56.403091	1008.112915	473.209778	82.568710	985.408203	-80.422760	142.026230	799.147339	496.558792	249.469086	823.505524	-80.578442	172.049591	880.734680	313.778473	184.123108	871.515259	89.534668	-11.067556	932.853577	187.285980	-1.172475	1148.196533	173.242050	212.658386	1065.053223	196.754593	223.639297	549.913025	385.443939	248.760162	463.423981	329.217041	193.891403	291.736633	367.509766	124.110359	99.642387	289.185974	86.079178	108.001999	236.145508	248.180435	49.859444	272.613922	94.764931	530.783508	12.386745	75.100174	433.756592	72.283066	50.669743	251.002472	19.570692	4.763076	55.958775	128.938629	-37.100533	48.606712	177.102203	127.764595	40.807705	157.298569
247	2.46000000	135.012039	1272.476562	365.718536	141.639221	1265.907104	-13.579576	79.143143	1348.445923	170.302307	194.848999	1257.293335	172.952499	63.522419	1007.923523	473.342377	96.326241	984.418335	-81.240700	146.396038	798.056274	498.354095	264.704018	824.113220	-79.895990	183.647278	879.705261	313.610596	194.501434	870.045593	89.265526	-0.215769	931.921387	188.184296	9.785432	1147.279297	173.340576	223.703323	1064.089844	196.618958	237.642517	549.859131	385.050415	262.131134	463.346832	328.537201	216.151489	288.198181	367.561707	159.597412	91.767799	289.776123	121.081123	97.899963	236.582794	286.449951	49.382027	273.460327	100.793427	530.066772	12.680274	80.019943	433.319916	72.635223	52.826279	250.882523	19.901546	4.977128	56.339458	129.356430	-36.920826	49.291416	177.685547	127.977974	40.714848	157.403717
248	2.47000000	145.400009	1271.253540	365.987823	153.083206	1264.722412	-13.363790	90.455482	1347.374512	170.312912	205.959198	1256.136108	173.050720	70.735695	1007.609985	473.524414	110.033775	983.322998	-82.015984	151.000824	796.936005	500.174072	279.784302	824.539764	-79.172970	195.315964	878.505127	313.617279	204.955231	868.526367	89.083824	10.710110	930.849304	189.117249	20.760117	1146.228149	173.546021	234.799408	1062.900757	196.497955	250.806396	549.206360	384.678131	274.666656	462.688263	328.009369	237.843353	284.655029	367.701050	195.380997	84.658524	290.277893	156.510361	88.614685	236.955078	324.573425	49.785381	274.168915	107.141159	529.329163	12.939057	85.179276	432.858398	72.952736	55.169712	250.752792	20.229401	5.219040	56.780338	129.756348	-36.706379	50.083324	178.242340	128.164673	40.617619	157.506470
249	2.48000000	155.883133	1269.871948	366.307068	164.540237	1263.403198	-13.060209	101.801315	1346.167114	170.419952	217.124298	1254.766235	173.195282	78.053299	1007.188171	473.756409	123.675766	982.140381	-82.741219	155.859833	795.792542	502.024597	294.716370	824.809906	-78.413479	207.080811	877.161987	313.768097	215.503784	866.972717	88.969261	21.731598	929.648865	190.099045	31.751612	1145.051758	173.855759	245.935364	1061.492432	196.413300	263.037933	547.925964	384.351776	286.407562	461.444550	327.649506	259.029144	281.136871	367.924713	231.241577	78.477768	290.689758	192.112991	80.308594	237.289764	362.338135	51.204628	274.651520	113.772850	528.587830	13.166584	90.555038	432.389191	73.239105	57.737106	250.633591	20.568171	5.485960	57.304939	130.147644	-36.448257	51.003269	178.786621	128.314041	40.521820	157.605392
250	2.49000000	166.474365	1268.356567	366.685181	176.018829	1261.970703	-12.660297	113.188995	1344.832764	170.625198	228.342239	1253.191895	173.396851	85.491539	1006.673218	474.044098	137.238892	980.888916	-83.410225	160.990829	794.631592	503.910446	309.505676	824.950623	-77.622585	218.967270	875.699646	314.023285	226.167480	865.398438	88.898735	32.869125	928.330200	191.143890	42.759354	1143.759033	174.266357	257.101074	1059.878784	196.384766	274.274261	546.018250	384.112976	297.436493	459.638123	327.467102	279.780396	277.707794	368.221466	266.903961	73.364311	291.019440	227.567032	73.106720	237.614502	399.460632	53.711777	274.810364	120.634781	527.862122	13.362393	96.126060	431.930206	73.498505	60.525539	250.551010	20.919798	5.775428	57.934422	130.536591	-36.137180	52.072754	179.329880	128.430756	40.431404	157.695892
251	2.50000000	177.182068	1266.730591	367.132568	187.527924	1260.445068	-12.158847	124.622307	1343.385132	170.931534	239.608002	1251.426514	173.665939	93.073486	1006.076660	474.397430	150.713699	979.587341	-84.017128	166.408028	793.457275	505.833054	324.138016	824.981628	-76.799103	230.997330	874.138062	314.340149	236.966522	863.818665	88.850006	44.138809	926.905457	192.262970	53.783661	1142.361572	174.772675	268.289124	1058.079956	196.428558	284.500153	543.512085	384.010956	307.877686	457.325989	327.457855	300.162140	274.464325	368.571259	302.027679	69.407631	291.277069	262.491150	67.083954	237.949982	435.589935	57.285774	274.565277	127.667656	527.171997	13.522505	101.881538	431.499115	73.730408	63.503841	250.534515	21.273165	6.088647	58.686256	130.921539	-35.767052	53.312061	179.870392	128.534882	40.342823	157.770218
252	2.51000000	188.009552	1265.015747	367.660797	199.076385	1258.844727	-11.553039	136.103104	1341.843506	171.342926	250.916901	1249.489868	174.012100	100.828163	1005.406128	474.828918	164.091125	978.253906	-84.554840	172.126366	792.271881	507.791458	338.582596	824.914764	-75.937819	243.185257	872.493591	314.679810	247.916687	862.249573	88.804794	55.550873	925.391357	193.463562	64.827469	1140.874634	175.368576	279.495758	1056.123169	196.555298	293.760437	540.460388	384.086639	317.891113	454.606415	327.599152	320.221161	271.522339	368.943787	336.208405	66.623306	291.466583	296.453308	62.252781	238.308258	470.328064	61.799328	273.871948	134.821609	526.536133	13.640650	107.826401	431.112305	73.926529	66.629715	250.612869	21.604872	6.434333	59.576351	131.288315	-35.336708	54.739746	180.386948	128.650314	40.248711	157.819138
